<?xml version="1.0" encoding="UTF-8"?>
<!-- AURA Lab — glyph-only mark (compact use) -->
<svg xmlns="http://www.w3.org/2000/svg" viewBox="0 0 110 110" role="img" aria-label="AURA Lab">
  <defs>
    <linearGradient id="gA" x1="0" x2="1" y1="0" y2="1"><stop offset="0%" stop-color="#0c5a3a"/><stop offset="100%" stop-color="#178a5a"/></linearGradient>
    <linearGradient id="gU" x1="0" x2="1" y1="0" y2="0"><stop offset="0%" stop-color="#178a5a"/><stop offset="100%" stop-color="#1c8a5a"/></linearGradient>
    <linearGradient id="gR" x1="0" x2="1" y1="1" y2="0"><stop offset="0%" stop-color="#1c8a5a"/><stop offset="100%" stop-color="#5bbf91"/></linearGradient>
    <linearGradient id="gA2" x1="1" x2="0" y1="0" y2="1"><stop offset="0%" stop-color="#5bbf91"/><stop offset="100%" stop-color="#B9975B"/></linearGradient>
    <radialGradient id="gGlow" cx="0.5" cy="0.5" r="0.55"><stop offset="0%" stop-color="#a4ecc4" stop-opacity=".22"/><stop offset="70%" stop-color="#a4ecc4" stop-opacity="0"/></radialGradient>
  </defs>
  <g transform="translate(55, 55)">
    <circle r="40" fill="url(#gGlow)"/>
    <g fill="none" stroke-width="6" stroke-linecap="round">
      <path d="M -20.6 -36.4 A 42 42 0 0 1  20.6 -36.4" stroke="url(#gA)"/>
      <path d="M  36.4 -20.6 A 42 42 0 0 1  36.4  20.6" stroke="url(#gU)"/>
      <path d="M  20.6  36.4 A 42 42 0 0 1 -20.6  36.4" stroke="url(#gR)"/>
      <path d="M -36.4  20.6 A 42 42 0 0 1 -36.4 -20.6" stroke="url(#gA2)"/>
    </g>
    <circle r="48" fill="none" stroke="#B9975B" stroke-width="0.6" stroke-dasharray="0.6 1.8" opacity=".7"/>
    <text x="0" y="11" text-anchor="middle" font-family="Source Serif 4, Iowan Old Style, Georgia, serif" font-weight="600" font-size="46" fill="#115740" letter-spacing="-2">A</text>
  </g>
</svg>
